<?xml version="1.0" encoding="utf-8"?>
<!-- Generator: Adobe Illustrator 21.0.0, SVG Export Plug-In . SVG Version: 6.00 Build 0)  -->
<svg version="1.1" id="Layer_1" xmlns="http://www.w3.org/2000/svg" xmlns:xlink="http://www.w3.org/1999/xlink" x="0px" y="0px"
	 viewBox="-294 386.7 21.2 21.3" style="enable-background:new -294 386.7 21.2 21.3;" xml:space="preserve">
<g>
	<path d="M-292.94,388.6c0.25-0.58,0.7-0.79,1.32-0.79c4.53,0.01,9.07,0.01,13.6,0c0.5,0,0.89,0.17,1.11,0.63
		c0.08,0.16,0.12,0.36,0.12,0.54c0.01,2.54,0.01,5.09,0,7.63c0,0.35-0.27,0.55-0.54,0.41c-0.17-0.09-0.2-0.25-0.2-0.43
		c0-1.11,0-2.23,0-3.34c0-0.46,0-0.92,0-1.39c-4.9,0-9.79,0-14.71,0c0,0.06,0,0.13,0,0.19c0,2.99,0,5.98,0,8.98
		c0,0.4,0.12,0.52,0.53,0.52c3.13,0,6.27,0,9.4,0c0.06,0,0.12,0,0.22,0c-0.22-0.75-0.43-1.49-0.64-2.24c-0.08,0-0.15,0-0.22,0
		c-2.57,0-5.14,0-7.71,0c-0.41,0-0.53-0.12-0.53-0.54c0-1.79,0-3.57,0-5.36c0-0.42,0.11-0.53,0.54-0.53c2.98,0,5.96,0,8.94,0
		c0.42,0,0.53,0.12,0.53,0.53c0,1.5,0,3,0,4.5c0,0.07,0,0.14,0,0.22c0.35,0.1,0.7,0.2,1.05,0.3c1.42,0.41,2.84,0.82,4.26,1.23
		c0.41,0.12,0.48,0.42,0.18,0.72c-0.27,0.27-0.54,0.53-0.82,0.81c0.05,0.06,0.1,0.11,0.14,0.15c0.76,0.76,1.51,1.51,2.27,2.27
		c0.31,0.31,0.31,0.46-0.01,0.78c-0.73,0.73-1.47,1.47-2.2,2.2c-0.09,0.09-0.19,0.18-0.28,0.27c-0.12,0-0.25,0-0.37,0
		c-0.87-0.86-1.74-1.72-2.62-2.6c-0.27,0.27-0.55,0.56-0.83,0.83c-0.27,0.27-0.58,0.19-0.69-0.19c-0.14-0.48-0.27-0.95-0.41-1.43
		c-0.12-0.4-0.23-0.81-0.35-1.21c-0.09,0-0.17,0-0.24,0c-3.17,0-6.34-0.01-9.51,0.01c-0.62,0-1.07-0.21-1.32-0.79
		C-292.94,397.21-292.94,392.9-292.94,388.6z M-277.52,391.09c0-0.7,0-1.37,0-2.05c0-0.35-0.13-0.48-0.49-0.48
		c-4.58,0-9.15,0-13.73,0c-0.36,0-0.49,0.13-0.49,0.48c0,0.63,0,1.26,0,1.88c0,0.05,0.01,0.11,0.01,0.17
		C-287.32,391.09-282.43,391.09-277.52,391.09z M-281.93,393.65c-2.84,0-5.67,0-8.49,0c0,1.64,0,3.27,0,4.9c2.49,0,4.98,0,7.48,0
		c-0.03-0.1-0.05-0.19-0.07-0.28c-0.05-0.16-0.05-0.31,0.08-0.43c0.12-0.13,0.27-0.13,0.43-0.08c0.19,0.06,0.38,0.11,0.58,0.16
		C-281.93,396.5-281.93,395.08-281.93,393.65z M-274.79,404.01c-0.03-0.03-0.08-0.08-0.13-0.13c-0.76-0.76-1.51-1.51-2.27-2.27
		c-0.3-0.3-0.31-0.46,0-0.76c0.19-0.19,0.38-0.38,0.6-0.59c-1.87-0.54-3.69-1.06-5.55-1.6c0.54,1.87,1.06,3.69,1.6,5.57
		c0.22-0.23,0.41-0.43,0.6-0.62c0.29-0.29,0.45-0.29,0.74,0c0.76,0.76,1.52,1.52,2.28,2.28c0.05,0.05,0.08,0.11,0.11,0.16
		C-276.11,405.34-275.46,404.68-274.79,404.01z"/>
	<path d="M-289.47,400.06c0.41,0,0.82-0.01,1.23,0c0.3,0.01,0.48,0.24,0.38,0.5c-0.06,0.16-0.19,0.24-0.36,0.25
		c-0.84,0-1.68,0.01-2.51,0c-0.23,0-0.38-0.16-0.39-0.37c0-0.22,0.15-0.37,0.4-0.37C-290.3,400.06-289.89,400.06-289.47,400.06z"/>
	<ellipse transform="matrix(0.0583 -0.9983 0.9983 0.0583 -669.7787 90.8598)" cx="-286.73" cy="400.43" rx="0.37" ry="0.37"/>
	<path d="M-276.78,398.19c0,0.19-0.18,0.37-0.37,0.37c-0.19,0-0.37-0.18-0.37-0.37c0-0.2,0.18-0.37,0.37-0.37
		C-276.95,397.82-276.78,398-276.78,398.19z"/>
	<path d="M-281.74,389.46c0.82,0,1.64,0,2.46,0c0.06,0,0.13,0,0.19,0.01c0.19,0.03,0.33,0.19,0.33,0.37c0,0.18-0.14,0.34-0.33,0.37
		c-0.05,0.01-0.1,0.01-0.15,0.01c-1.65,0-3.31,0-4.96,0c-0.07,0-0.14,0-0.2-0.02c-0.18-0.04-0.29-0.19-0.28-0.37
		c0-0.17,0.11-0.31,0.28-0.35c0.07-0.02,0.15-0.02,0.22-0.02C-283.37,389.46-282.55,389.46-281.74,389.46z"/>
	<path d="M-288.57,389.84c0,0.19-0.18,0.36-0.37,0.36c-0.2,0-0.37-0.17-0.37-0.37c0-0.2,0.18-0.38,0.38-0.37
		C-288.74,389.47-288.57,389.64-288.57,389.84z"/>
	<ellipse transform="matrix(0.9998 -0.0197 0.0197 0.9998 -7.7173 -5.6365)" cx="-290.64" cy="389.83" rx="0.37" ry="0.37"/>
	<path d="M-287.24,390.2c-0.2,0-0.37-0.16-0.37-0.36c-0.01-0.21,0.16-0.38,0.37-0.38c0.2,0,0.36,0.17,0.36,0.37
		C-286.88,390.03-287.04,390.2-287.24,390.2z"/>
	<path d="M-285.15,394.39c0.63-0.02,1.16,0.17,1.55,0.69c0.39,0.52,0.46,1.1,0.21,1.69c-0.24,0.58-0.69,0.93-1.32,1.02
		c-0.23,0.03-0.46,0.03-0.69,0.03c-0.25,0-0.4-0.14-0.41-0.39c-0.01-0.88-0.01-1.76,0-2.65c0-0.25,0.16-0.38,0.41-0.39
		C-285.31,394.38-285.23,394.39-285.15,394.39z M-285.05,397.07c0.38,0.01,0.69-0.12,0.89-0.44c0.22-0.34,0.22-0.69,0.01-1.04
		c-0.2-0.33-0.51-0.47-0.9-0.46C-285.05,395.78-285.05,396.42-285.05,397.07z"/>
	<path d="M-287.33,397.48c-0.31,0-0.63,0-0.94,0c-0.04,0-0.09,0.05-0.12,0.08c-0.13,0.22-0.3,0.29-0.49,0.21
		c-0.2-0.09-0.27-0.27-0.19-0.52c0.21-0.63,0.42-1.26,0.63-1.89c0.08-0.24,0.16-0.47,0.24-0.71c0.06-0.18,0.18-0.29,0.37-0.28
		c0.18,0,0.3,0.11,0.35,0.28c0.29,0.87,0.59,1.74,0.88,2.61c0.08,0.24-0.01,0.43-0.21,0.51
		C-287.01,397.87-287.18,397.77-287.33,397.48z M-287.57,396.73c-0.09-0.26-0.17-0.51-0.27-0.8c-0.1,0.29-0.18,0.54-0.26,0.8
		C-287.92,396.73-287.76,396.73-287.57,396.73z"/>
</g>
</svg>
