<?xml version="1.0" encoding="utf-8"?>
<!-- Generator: Adobe Illustrator 21.0.0, SVG Export Plug-In . SVG Version: 6.00 Build 0)  -->
<svg version="1.1" id="Layer_1" xmlns="http://www.w3.org/2000/svg" xmlns:xlink="http://www.w3.org/1999/xlink" x="0px" y="0px"
	 viewBox="-294 386.7 21.2 21.3" style="enable-background:new -294 386.7 21.2 21.3;" xml:space="preserve">
<g>
	<path d="M-285.19,396.1h-0.85l-0.43,1.56l-1.73,0l-0.29,0.74l1.52,1l-0.7,1.61l0.64,0.48l1.42-1.17l1.42,1.17l0.64-0.48l-0.7-1.61
		l1.52-1l-0.3-0.74l-1.72,0L-285.19,396.1z M-285.04,399.16l0.56,1.29l-1.14-0.94l-1.14,0.94l0.56-1.29l-1.33-0.88l1.54,0l0.38-1.38
		l0.39,1.38l1.53,0L-285.04,399.16z"/>
	<path d="M-285.58,394.86c-2.23,0-4.05,1.82-4.05,4.05c0,2.23,1.82,4.05,4.05,4.05c2.23,0,4.05-1.82,4.05-4.05
		C-281.53,396.67-283.35,394.86-285.58,394.86z M-285.58,402.34c-1.89,0-3.43-1.54-3.43-3.43c0-1.89,1.54-3.43,3.43-3.43
		c1.89,0,3.43,1.54,3.43,3.43C-282.15,400.8-283.69,402.34-285.58,402.34z"/>
	<path d="M-289.63,392.05h0.62v0.62h-0.62V392.05z"/>
	<path d="M-289.63,394.54h0.62v0.62h-0.62V394.54z"/>
	<path d="M-289.63,393.3h0.62v0.62h-0.62V393.3z"/>
	<path d="M-282.15,403.9h0.62v0.62h-0.62V403.9z"/>
	<path d="M-282.15,402.65h0.62v0.62h-0.62V402.65z"/>
	<path d="M-282.15,401.4h0.62v0.62h-0.62V401.4z"/>
	<path d="M-275.92,391.12c0-1.4-2.19-2.49-4.99-2.49c-0.55,0-1.09,0.05-1.61,0.13l-1.07-1.07h-4l-3.3,3.3v16.02h10.6v-13.42
		C-277.79,393.44-275.92,392.41-275.92,391.12L-275.92,391.12z M-287.32,388.31h3.48l2.49,2.49h-2.71
		c-0.14-0.71-0.77-1.25-1.53-1.25c-0.75,0-1.38,0.54-1.53,1.25h-2.71L-287.32,388.31z M-285.27,391.12c0-0.27,0.15-0.5,0.33-0.68
		c0.18,0.17,0.3,0.41,0.3,0.68c0,0.27-0.11,0.51-0.29,0.68C-285.15,391.57-285.27,391.34-285.27,391.12z M-285.54,392.05
		c-0.01,0-0.03,0-0.04,0c-0.52,0-0.94-0.42-0.94-0.94s0.42-0.94,0.94-0.94c0.01,0,0.02,0,0.03,0c-0.23,0.29-0.35,0.61-0.35,0.93
		C-285.89,391.45-285.77,391.76-285.54,392.05z M-284.05,391.43h3.15v1.56c-1.52,0-2.77-0.35-3.54-0.81
		C-284.25,391.97-284.11,391.71-284.05,391.43z M-280.91,405.14h-8.1v0.62h8.1v0.62h-9.35v-0.62h0.62v-0.62h-0.62v-13.71h3.15
		c0.14,0.71,0.77,1.25,1.53,1.25c0.21,0,0.4-0.04,0.59-0.12c0.89,0.64,2.38,1.05,4.09,1.05V405.14z M-280.28,392.96v-1.98
		l-1.68-1.68c0.34-0.04,0.7-0.06,1.06-0.06c2.57,0,4.36,0.99,4.36,1.87C-276.54,391.93-278.05,392.82-280.28,392.96z"/>
</g>
</svg>
