<?xml version="1.0" encoding="utf-8"?>
<!-- Generator: Adobe Illustrator 21.0.0, SVG Export Plug-In . SVG Version: 6.00 Build 0)  -->
<svg version="1.1" id="Layer_1" xmlns="http://www.w3.org/2000/svg" xmlns:xlink="http://www.w3.org/1999/xlink" x="0px" y="0px"
	 viewBox="-294 386.7 21.2 21.3" style="enable-background:new -294 386.7 21.2 21.3;" xml:space="preserve">
<g>
	<path d="M-292.94,393.44c0.09-0.26,0.15-0.54,0.28-0.78c0.42-0.74,1.07-1.11,1.93-1.11c0.9,0,1.8,0,2.7,0c0.07,0,0.13,0,0.17,0
		c0.07-0.26,0.1-0.51,0.21-0.73c0.31-0.66,0.87-0.97,1.59-0.97c1.77,0,3.54-0.01,5.31,0c0.86,0.01,1.47,0.49,1.68,1.28
		c0.03,0.13,0.04,0.27,0.06,0.42c0.07,0,0.14,0,0.21,0c0.91,0,1.82,0,2.74,0c1.05,0.01,1.9,0.67,2.13,1.66
		c0.04,0.19,0.06,0.38,0.06,0.57c0,2.95-0.01,5.9,0.01,8.84c0.01,1.06-0.82,2.26-2.22,2.23c-0.65-0.01-1.3,0-1.95,0
		c-4.21,0-8.42,0-12.62,0c-0.87,0-1.54-0.35-1.99-1.09c-0.14-0.24-0.2-0.53-0.29-0.79C-292.94,399.8-292.94,396.62-292.94,393.44z
		 M-283.4,403.9c2.41,0,4.81,0,7.22,0c0.16,0,0.33-0.01,0.48-0.05c0.57-0.15,0.89-0.63,0.89-1.32c0-2.9,0-5.8,0-8.69
		c0-0.15-0.01-0.3-0.05-0.44c-0.14-0.55-0.6-0.88-1.21-0.88c-1.12,0-2.23,0-3.35,0c-0.36,0-0.56-0.2-0.56-0.56c0-0.11,0-0.21,0-0.32
		c0-0.59-0.25-0.84-0.84-0.84c-1.69,0-3.39,0-5.08,0c-0.09,0-0.19,0-0.28,0c-0.34,0.03-0.59,0.26-0.62,0.6
		c-0.02,0.17-0.01,0.35-0.01,0.52c-0.01,0.4-0.19,0.59-0.59,0.59c-1.11,0-2.22,0-3.33,0c-0.73,0-1.23,0.49-1.23,1.2
		c-0.01,2.99,0,5.98,0,8.97c0,0.19,0.04,0.39,0.13,0.55c0.24,0.48,0.66,0.66,1.18,0.66C-288.24,403.89-285.82,403.9-283.4,403.9z"/>
	<path d="M-283.4,393.74c2.45,0,4.47,2.02,4.46,4.47c-0.01,2.46-2,4.44-4.46,4.45c-2.45,0-4.47-2.02-4.46-4.47
		C-287.85,395.73-285.86,393.74-283.4,393.74z M-279.93,398.24c0-1.95-1.54-3.49-3.48-3.49c-1.93,0-3.47,1.56-3.47,3.48
		c0,1.93,1.56,3.48,3.48,3.48C-281.47,401.69-279.93,400.15-279.93,398.24z"/>
	<path d="M-276.95,395.5c-0.49,0-0.89-0.4-0.89-0.88c0-0.48,0.39-0.88,0.87-0.88c0.49-0.01,0.89,0.38,0.9,0.87
		C-276.06,395.1-276.46,395.49-276.95,395.5z"/>
</g>
</svg>
