<?xml version="1.0" encoding="utf-8"?>
<!-- Generator: Adobe Illustrator 21.0.0, SVG Export Plug-In . SVG Version: 6.00 Build 0)  -->
<svg version="1.1" id="Layer_1" xmlns="http://www.w3.org/2000/svg" xmlns:xlink="http://www.w3.org/1999/xlink" x="0px" y="0px"
	 viewBox="-294 386.7 21.2 21.3" style="enable-background:new -294 386.7 21.2 21.3;" xml:space="preserve">
<g>
	<path d="M-247.86,397.97h2.46c0.17,0,0.31-0.14,0.31-0.31v-2.46c0-0.17-0.14-0.31-0.31-0.31h-2.46c-0.17,0-0.31,0.14-0.31,0.31
		v2.46C-248.17,397.83-248.03,397.97-247.86,397.97z M-247.55,395.5h1.85v1.85h-1.85V395.5z"/>
	<path d="M-245.4,402.27h-2.46c-0.17,0-0.31,0.14-0.31,0.31v2.46c0,0.17,0.14,0.31,0.31,0.31h2.46c0.17,0,0.31-0.14,0.31-0.31v-2.46
		C-245.09,402.41-245.23,402.27-245.4,402.27z M-245.7,404.73h-1.85v-1.85h1.85V404.73z"/>
	<path d="M-244.47,391.81h6.77v0.62h-6.77V391.81z"/>
	<path d="M-244.47,393.04h6.77v0.62h-6.77V393.04z"/>
	<path d="M-244.47,395.5h6.77v0.62h-6.77V395.5z"/>
	<path d="M-244.47,396.73h6.77v0.62h-6.77V396.73z"/>
	<path d="M-245.52,391.2h-2.33c-0.17,0-0.31,0.14-0.31,0.31v2.46c0,0.17,0.14,0.31,0.31,0.31h2.46c0.17,0,0.31-0.14,0.31-0.31v-2.33
		l0.53-0.53l-0.44-0.44L-245.52,391.2z M-246.14,391.81l-1.41,1.41v-1.41H-246.14z M-245.7,393.66h-1.41l1.41-1.41V393.66z"/>
	<path d="M-245,398.06l-0.53,0.53h-2.33c-0.17,0-0.31,0.14-0.31,0.31v2.46c0,0.17,0.14,0.31,0.31,0.31h2.46
		c0.17,0,0.31-0.14,0.31-0.31v-2.33l0.53-0.53L-245,398.06z M-246.14,399.2l-1.41,1.41v-1.41H-246.14z M-245.7,401.04h-1.41
		l1.41-1.41V401.04z"/>
	<path d="M-230.63,409.04c0.17,0,0.31-0.14,0.31-0.31v-5.54c0-0.17-0.14-0.31-0.31-0.31h-1.54v-4.61c0-0.17-0.14-0.31-0.31-0.31h-4
		v-7.69c0-0.17-0.14-0.31-0.31-0.31h-12.31c-0.17,0-0.31,0.14-0.31,0.31v16c0,0.17,0.14,0.31,0.31,0.31h4.61v2.15
		c0,0.17,0.14,0.31,0.31,0.31H-230.63z M-234.63,403.5h1.23v1.23h-1.23V403.5z M-238.32,402.89v-4.31h1.85v1.54
		c0,0.17,0.14,0.31,0.31,0.31h1.23c0.17,0,0.31-0.14,0.31-0.31v-1.54h1.85v4.31H-238.32z M-235.86,398.58h0.62v1.23h-0.62V398.58z
		 M-244.47,403.2v2.77h-4.31v-15.38h11.69v7.38h-1.54c-0.17,0-0.31,0.14-0.31,0.31v0.92h-5.54v0.62h5.54v0.62h-5.54v0.62h5.54v1.85
		h-5.23C-244.34,402.89-244.47,403.03-244.47,403.2z M-241.4,403.5h1.23v1.23h-1.23V403.5z M-243.86,403.5h1.85v1.54
		c0,0.17,0.14,0.31,0.31,0.31h1.85c0.17,0,0.31-0.14,0.31-0.31v-1.54h1.85v4.92h-6.15V403.5z M-230.94,408.43h-6.15v-4.92h1.85v1.54
		c0,0.17,0.14,0.31,0.31,0.31h1.85c0.17,0,0.31-0.14,0.31-0.31v-1.54h1.85V408.43z"/>
	<path d="M-232.78,407.2h1.23v0.62h-1.23V407.2z"/>
	<path d="M-234.63,401.66h1.23v0.62h-1.23V401.66z"/>
	<path d="M-232.78,405.96h1.23v0.62h-1.23V405.96z"/>
	<path d="M-239.55,407.2h1.23v0.62h-1.23V407.2z"/>
	<path d="M-239.55,405.96h1.23v0.62h-1.23V405.96z"/>
</g>
<g>
	<path d="M-282,406.89h7.78c0.2,0,0.36-0.16,0.36-0.36v-7.78c0-0.15-0.09-0.28-0.22-0.33l0,0c-0.04-0.02-0.09-0.03-0.14-0.03
		c-0.09,0-0.19,0.04-0.26,0.11l-7.77,7.78c-0.1,0.1-0.13,0.26-0.08,0.39C-282.28,406.8-282.15,406.89-282,406.89z M-274.58,399.62
		v6.55h-6.55L-274.58,399.62z"/>
	<path d="M-278.11,387.81c-2.34,0-4.25,1.91-4.25,4.25s1.91,4.25,4.25,4.25c2.34,0,4.25-1.91,4.25-4.25
		S-275.77,387.81-278.11,387.81z M-278.11,395.59c-1.94,0-3.53-1.58-3.53-3.53s1.58-3.53,3.53-3.53s3.53,1.58,3.53,3.53
		S-276.17,395.59-278.11,395.59z"/>
	<path d="M-284.8,387.81h-7.78c-0.2,0-0.36,0.16-0.36,0.36v7.78c0,0.2,0.16,0.36,0.36,0.36h7.78c0.2,0,0.36-0.16,0.36-0.36v-7.78
		C-284.44,387.98-284.6,387.81-284.8,387.81z M-285.16,395.59h-7.06v-7.06h7.06V395.59z"/>
	<path d="M-292.32,406.78l3.63-3.63l3.63,3.63c0.14,0.14,0.37,0.14,0.51,0c0.14-0.14,0.14-0.37,0-0.51l-3.63-3.63l3.63-3.63
		c0.14-0.14,0.14-0.37,0-0.51c-0.14-0.14-0.37-0.14-0.51,0l-3.63,3.63l-3.63-3.63c-0.07-0.07-0.16-0.11-0.25-0.11
		s-0.19,0.04-0.25,0.1c-0.14,0.14-0.14,0.37,0,0.51l3.63,3.63l-3.63,3.63c-0.07,0.07-0.11,0.16-0.11,0.25c0,0.1,0.04,0.19,0.11,0.25
		C-292.7,406.92-292.46,406.92-292.32,406.78z"/>
</g>
</svg>
