<?xml version="1.0" encoding="utf-8"?>
<!-- Generator: Adobe Illustrator 21.0.0, SVG Export Plug-In . SVG Version: 6.00 Build 0)  -->
<svg version="1.1" id="Layer_1" xmlns="http://www.w3.org/2000/svg" xmlns:xlink="http://www.w3.org/1999/xlink" x="0px" y="0px"
	 viewBox="-294 386.7 21.2 21.3" style="enable-background:new -294 386.7 21.2 21.3;" xml:space="preserve">
<g>
	<path d="M-283.39,406.53c-0.93-0.01-1.86-0.12-2.74-0.42c-0.28-0.1-0.55-0.1-0.83-0.05c-1.5,0.27-3,0.53-4.5,0.8
		c-0.21,0.04-0.4,0-0.54-0.17c-0.15-0.18-0.14-0.38-0.05-0.58c0.42-0.98,0.85-1.97,1.27-2.95c0.05-0.12,0.04-0.2-0.03-0.3
		c-0.75-0.97-1.29-2.05-1.61-3.24c-0.32-1.19-0.4-2.39-0.25-3.61c0.23-1.76,0.89-3.33,2.01-4.7c1.48-1.81,3.36-2.95,5.67-3.33
		c3.3-0.54,6.13,0.42,8.44,2.83c1.37,1.43,2.17,3.17,2.42,5.14c0.52,4.21-1.72,8.13-5.61,9.83
		C-280.82,406.25-282.17,406.53-283.39,406.53z M-290.75,405.67c0.05,0,0.09,0.01,0.13,0c1.29-0.23,2.59-0.45,3.88-0.68
		c0.21-0.04,0.4-0.03,0.6,0.04c1.59,0.56,3.21,0.64,4.84,0.21c3.46-0.91,5.9-3.83,6.21-7.42c0.14-1.68-0.17-3.27-1.03-4.72
		c-1.73-2.91-4.31-4.34-7.7-4.23c-1.86,0.06-3.52,0.74-4.93,1.95c-1.79,1.53-2.77,3.47-2.94,5.82c-0.09,1.29,0.13,2.54,0.62,3.74
		c0.32,0.77,0.75,1.48,1.29,2.12c0.18,0.22,0.22,0.44,0.1,0.7c-0.15,0.32-0.28,0.65-0.42,0.97
		C-290.32,404.67-290.54,405.16-290.75,405.67z"/>
	<path d="M-283.38,397.86c1.03,0,2.07,0,3.1,0c0.39,0,0.64,0.32,0.52,0.66c-0.07,0.21-0.22,0.32-0.44,0.35c-0.06,0.01-0.12,0-0.19,0
		c-2.01,0-4.02,0-6.04,0c-0.42,0-0.66-0.19-0.66-0.51c0-0.32,0.24-0.5,0.66-0.5C-285.4,397.86-284.39,397.86-283.38,397.86z"/>
	<path d="M-285.18,396.33c-0.45,0-0.89,0.01-1.34,0c-0.43-0.01-0.69-0.4-0.49-0.75c0.1-0.19,0.27-0.27,0.47-0.27
		c0.9,0,1.79,0,2.69,0c0.32,0,0.55,0.22,0.55,0.51c0,0.29-0.22,0.51-0.55,0.51C-284.28,396.34-284.73,396.33-285.18,396.33z"/>
</g>
</svg>
