<?xml version="1.0" encoding="utf-8"?>
<!-- Generator: Adobe Illustrator 21.0.0, SVG Export Plug-In . SVG Version: 6.00 Build 0)  -->
<svg version="1.1" id="Layer_1" xmlns="http://www.w3.org/2000/svg" xmlns:xlink="http://www.w3.org/1999/xlink" x="0px" y="0px"
	 viewBox="-294 386.7 21.2 21.3" style="enable-background:new -294 386.7 21.2 21.3;" xml:space="preserve">
<path d="M-273.9,397.75c-0.11,0.33-0.26,0.63-0.52,0.87c-0.33,0.31-0.72,0.47-1.18,0.47c-0.09,0-0.19,0-0.31,0c0,0.08,0,0.15,0,0.22
	c0,1.82,0,3.64,0,5.46c0,1-0.63,1.8-1.59,2.02c-0.17,0.04-0.34,0.05-0.51,0.05c-0.97,0.01-1.93,0-2.9,0c-0.42,0-0.64-0.22-0.64-0.64
	c0-1.42-0.02-2.85,0.01-4.27c0.01-0.63-0.42-1.08-1.06-1.06c-0.5,0.02-1,0.02-1.5,0c-0.67-0.03-1.12,0.41-1.11,1.09
	c0.03,1.4,0.01,2.8,0.01,4.2c0,0.48-0.21,0.69-0.69,0.69c-0.94,0-1.88,0-2.82,0c-1.25,0-2.13-0.88-2.13-2.13c0-1.8,0-3.59,0-5.39
	c0-0.07,0-0.15,0-0.23c-0.21-0.02-0.42-0.02-0.62-0.06c-0.66-0.13-1.12-0.52-1.33-1.16c-0.21-0.63-0.08-1.21,0.35-1.72
	c0.05-0.06,0.1-0.11,0.15-0.16c2.53-2.53,5.06-5.06,7.6-7.59c0.2-0.2,0.44-0.39,0.7-0.47c0.65-0.21,1.29-0.16,1.81,0.35
	c0.32,0.31,0.63,0.63,0.95,0.94c2.2,2.2,4.39,4.4,6.6,6.59c0.32,0.32,0.61,0.65,0.73,1.09C-273.9,397.21-273.9,397.48-273.9,397.75z
	 M-280.44,405.74c0.08,0,0.15,0,0.22,0c0.71,0,1.42,0,2.14,0c0.7,0,1.06-0.37,1.06-1.07c0-2.01,0-4.03,0-6.04
	c0-0.44,0.22-0.66,0.66-0.66c0.25,0,0.51,0,0.76,0c0.28-0.01,0.51-0.19,0.59-0.46c0.09-0.31-0.06-0.53-0.27-0.74
	c-2.52-2.52-5.04-5.03-7.55-7.55c-0.39-0.39-0.71-0.38-1.1,0.01c-2.24,2.24-4.48,4.48-6.73,6.73c-0.31,0.31-0.62,0.62-0.93,0.93
	c-0.2,0.2-0.25,0.44-0.13,0.7c0.11,0.25,0.31,0.38,0.59,0.38c0.23,0,0.46,0,0.69,0c0.51,0,0.71,0.2,0.71,0.7c0,2.02,0,4.04,0,6.06
	c0,0.61,0.39,1,0.99,1c0.74,0,1.49,0,2.23,0c0.06,0,0.12-0.01,0.19-0.01c0-0.09,0-0.16,0-0.24c0-1.26-0.01-2.51,0.01-3.77
	c0.01-0.99,0.81-1.86,1.8-1.92c0.76-0.05,1.52-0.01,2.28-0.01c0.06,0,0.11,0.01,0.17,0.02c0.97,0.21,1.62,1.01,1.63,2.03
	c0.01,1.22,0,2.44,0,3.66C-280.44,405.57-280.44,405.65-280.44,405.74z"/>
</svg>
