<?xml version="1.0" encoding="utf-8"?>
<!-- Generator: Adobe Illustrator 21.0.0, SVG Export Plug-In . SVG Version: 6.00 Build 0)  -->
<svg version="1.1" id="Layer_1" xmlns="http://www.w3.org/2000/svg" xmlns:xlink="http://www.w3.org/1999/xlink" x="0px" y="0px"
	 viewBox="0 0 21.2 21.3" style="enable-background:new 0 0 21.2 21.3;" xml:space="preserve">
<path d="M19.15,8.31l-9.57,9.46c-1.67,1.66-4.39,1.66-6.06,0c-0.81-0.8-1.26-1.87-1.26-3s0.45-2.2,1.26-3l8.72-8.62
	c1.14-1.13,2.99-1.13,4.13,0c0.55,0.55,0.85,1.27,0.85,2.04s-0.3,1.49-0.85,2.04l-8.72,8.62c-0.6,0.6-1.58,0.6-2.19,0
	c-0.29-0.29-0.45-0.67-0.45-1.08c0-0.41,0.16-0.79,0.45-1.08l7.63-7.55l-0.72-0.71l-7.63,7.55c-0.48,0.48-0.75,1.12-0.75,1.79
	c0,0.67,0.27,1.31,0.75,1.79c1,0.99,2.63,0.99,3.63,0l8.72-8.62c0.75-0.74,1.16-1.71,1.16-2.75c0-1.04-0.41-2.01-1.16-2.75
	c-1.54-1.52-4.04-1.52-5.56,0l-9.12,9.01l-0.04,0.1c-1.64,2.09-1.45,5.06,0.44,6.92c1.89,1.86,4.9,2.05,7,0.44l0.12-0.09l0.02,0.01
	L19.86,9L19.15,8.31z"/>
</svg>
