<?xml version="1.0" encoding="utf-8"?>
<!-- Generator: Adobe Illustrator 21.0.0, SVG Export Plug-In . SVG Version: 6.00 Build 0)  -->
<svg version="1.1" id="Layer_1" xmlns="http://www.w3.org/2000/svg" xmlns:xlink="http://www.w3.org/1999/xlink" x="0px" y="0px"
	 viewBox="-294 386.7 21.2 21.3" style="enable-background:new -294 386.7 21.2 21.3;" xml:space="preserve">
<g>
	<path d="M-275.42,394.52h-5.24c0.02-0.18,0.03-0.37,0.03-0.56c0-3.39-2.76-6.15-6.15-6.15c-1.08,0-2.14,0.28-3.07,0.82
		c-0.18,0.1-0.24,0.33-0.14,0.51c0.1,0.18,0.33,0.24,0.51,0.14c0.82-0.47,1.75-0.72,2.7-0.72c2.98,0,5.41,2.42,5.41,5.41
		c0,2.98-2.43,5.41-5.41,5.41c-1.25,0-2.42-0.41-3.39-1.2c-0.1-0.08-0.23-0.1-0.34-0.07l-0.99,0.26l0.39-0.85
		c0.06-0.12,0.04-0.27-0.04-0.37c-0.68-0.93-1.03-2.03-1.03-3.18c0-0.95,0.25-1.89,0.73-2.71c0.1-0.18,0.04-0.41-0.14-0.51
		c-0.18-0.1-0.41-0.04-0.51,0.14c-0.54,0.93-0.83,2-0.83,3.08c0,1.24,0.36,2.42,1.05,3.44l-0.62,1.37
		c-0.06,0.13-0.04,0.28,0.05,0.39c0.09,0.11,0.24,0.16,0.38,0.12l1.59-0.41c1.06,0.8,2.37,1.24,3.71,1.24
		c0.29,0,0.58-0.02,0.86-0.06v3.26c0,0.86,0.7,1.57,1.57,1.57h5.27l2.36,1.93c0.07,0.06,0.15,0.08,0.24,0.08
		c0.05,0,0.11-0.01,0.16-0.04c0.13-0.06,0.21-0.19,0.21-0.34v-1.64h0.71c0.86,0,1.57-0.7,1.57-1.57v-7.23
		C-273.86,395.22-274.56,394.52-275.42,394.52z M-274.6,403.31c0,0.45-0.37,0.82-0.82,0.82h-1.08c-0.21,0-0.37,0.17-0.37,0.37v1.23
		l-1.84-1.51c-0.1-0.09-0.19-0.09-0.39-0.09h-5.26c-0.45,0-0.82-0.37-0.82-0.82v-3.42c2.2-0.6,3.92-2.39,4.41-4.64h5.36
		c0.45,0,0.82,0.37,0.82,0.82V403.31z"/>
	<path d="M-278.04,400.8c0.13-0.06,0.21-0.19,0.21-0.34c0-0.21-0.17-0.37-0.37-0.37h-0.15l-1.2-2.74c-0.06-0.14-0.19-0.22-0.34-0.22
		c-0.15,0-0.28,0.09-0.34,0.22l-1.2,2.74h-0.15c-0.21,0-0.37,0.17-0.37,0.37c0,0.15,0.09,0.28,0.21,0.34l-0.45,1.02
		c-0.08,0.19,0,0.41,0.19,0.49c0.19,0.08,0.41,0,0.49-0.19l0.56-1.28h2.11l0.56,1.28c0.06,0.14,0.2,0.22,0.34,0.22
		c0.05,0,0.1-0.01,0.15-0.03c0.19-0.08,0.27-0.3,0.19-0.49L-278.04,400.8z M-280.63,400.09l0.73-1.66l0.73,1.66H-280.63z"/>
	<path d="M-290.88,390.25c0.1,0,0.19-0.04,0.26-0.11c0.07-0.07,0.11-0.17,0.11-0.26c0-0.1-0.04-0.19-0.11-0.26
		c-0.07-0.07-0.17-0.11-0.26-0.11c-0.1,0-0.19,0.04-0.26,0.11c-0.07,0.07-0.11,0.17-0.11,0.26c0,0.1,0.04,0.19,0.11,0.26
		C-291.07,390.21-290.98,390.25-290.88,390.25z"/>
	<path d="M-289.02,396.23c-0.18,0.1-0.25,0.33-0.15,0.51c0.07,0.12,0.2,0.19,0.33,0.19c0.06,0,0.12-0.01,0.18-0.05
		c0.83-0.46,1.47-1.16,1.84-2c0.37,0.84,1.01,1.55,1.84,2c0.06,0.03,0.12,0.05,0.18,0.05c0.13,0,0.26-0.07,0.33-0.19
		c0.1-0.18,0.03-0.41-0.15-0.51c-0.97-0.53-1.63-1.49-1.79-2.56h1.65c0.21,0,0.37-0.17,0.37-0.37s-0.17-0.37-0.37-0.37h-1.69v-1.55
		c0-0.21-0.17-0.37-0.37-0.37c-0.21,0-0.37,0.17-0.37,0.37v1.55h-1.35c-0.21,0-0.37,0.17-0.37,0.37s0.17,0.37,0.37,0.37h1.31
		C-287.39,394.74-288.04,395.69-289.02,396.23z"/>
</g>
</svg>
