<?xml version="1.0" encoding="utf-8"?>
<!-- Generator: Adobe Illustrator 21.0.0, SVG Export Plug-In . SVG Version: 6.00 Build 0)  -->
<svg version="1.1" id="Layer_1" xmlns="http://www.w3.org/2000/svg" xmlns:xlink="http://www.w3.org/1999/xlink" x="0px" y="0px"
	 viewBox="-294 386.7 21.2 21.3" style="enable-background:new -294 386.7 21.2 21.3;" xml:space="preserve">
<g>
	<path d="M-281.2,398.3c-2.09,0-4.17,0-6.26,0c-0.26,0-0.51-0.04-0.71-0.22c-0.31-0.26-0.41-0.6-0.31-0.99
		c0.09-0.37,0.41-0.64,0.8-0.68c0.08-0.01,0.16-0.01,0.24-0.01c4.17,0,8.34,0,12.51,0c0.57,0,0.95,0.28,1.05,0.77
		c0.11,0.51-0.26,1.03-0.77,1.11c-0.11,0.02-0.22,0.02-0.33,0.02C-277.06,398.3-279.13,398.3-281.2,398.3z"/>
	<path d="M-281.2,392.33c-2.1,0-4.21,0-6.31,0c-0.63,0-1.05-0.46-1-1.06c0.04-0.45,0.41-0.81,0.88-0.84c0.06,0,0.11,0,0.17,0
		c4.18,0,8.37,0,12.55,0c0.55,0,0.93,0.28,1.03,0.77c0.11,0.54-0.29,1.08-0.84,1.12c-0.09,0.01-0.17,0-0.26,0
		C-277.06,392.33-279.13,392.33-281.2,392.33z"/>
	<path d="M-281.2,402.37c2.11,0,4.22,0,6.33,0c0.56,0,0.98,0.37,1.01,0.89c0.03,0.53-0.37,0.98-0.9,1.01c-0.06,0-0.12,0-0.19,0
		c-4.16,0-8.32,0-12.47,0c-0.15,0-0.31-0.01-0.46-0.06c-0.44-0.15-0.69-0.58-0.62-1.06c0.07-0.43,0.46-0.78,0.91-0.78
		c1.69-0.01,3.39,0,5.08,0C-282.07,402.37-281.64,402.37-281.2,402.37z"/>
	<ellipse transform="matrix(5.895085e-03 -1 1 5.895085e-03 -681.382 97.4889)" cx="-291.66" cy="391.45" rx="1.28" ry="1.28"/>
	<ellipse transform="matrix(4.839829e-03 -1 1 4.839829e-03 -693.4919 109.6435)" cx="-291.66" cy="403.25" rx="1.28" ry="1.28"/>
	<path d="M-291.68,398.62c-0.71-0.01-1.26-0.59-1.26-1.29c0.01-0.7,0.59-1.26,1.3-1.25c0.7,0.01,1.28,0.6,1.26,1.29
		C-290.4,398.08-290.97,398.63-291.68,398.62z"/>
</g>
</svg>
