<?xml version="1.0" encoding="utf-8"?>
<!-- Generator: Adobe Illustrator 21.0.0, SVG Export Plug-In . SVG Version: 6.00 Build 0)  -->
<svg version="1.1" id="Layer_1" xmlns="http://www.w3.org/2000/svg" xmlns:xlink="http://www.w3.org/1999/xlink" x="0px" y="0px"
	 viewBox="-294 386.7 21.2 21.3" style="enable-background:new -294 386.7 21.2 21.3;" xml:space="preserve">
<g>
	<path d="M-291.4,395.81h2.46c0.17,0,0.31-0.14,0.31-0.31v-2.46c0-0.17-0.14-0.31-0.31-0.31h-2.46c-0.17,0-0.31,0.14-0.31,0.31v2.46
		C-291.71,395.67-291.57,395.81-291.4,395.81z M-291.09,393.35h1.85v1.85h-1.85V393.35z"/>
	<path d="M-288.94,400.12h-2.46c-0.17,0-0.31,0.14-0.31,0.31v2.46c0,0.17,0.14,0.31,0.31,0.31h2.46c0.17,0,0.31-0.14,0.31-0.31
		v-2.46C-288.63,400.26-288.77,400.12-288.94,400.12z M-289.25,402.58h-1.85v-1.85h1.85V402.58z"/>
	<path d="M-288.01,389.66h6.77v0.62h-6.77V389.66z"/>
	<path d="M-288.01,390.89h6.77v0.62h-6.77V390.89z"/>
	<path d="M-288.01,393.35h6.77v0.62h-6.77V393.35z"/>
	<path d="M-288.01,394.58h6.77v0.62h-6.77V394.58z"/>
	<path d="M-289.07,389.04h-2.33c-0.17,0-0.31,0.14-0.31,0.31v2.46c0,0.17,0.14,0.31,0.31,0.31h2.46c0.17,0,0.31-0.14,0.31-0.31
		v-2.33l0.53-0.53l-0.44-0.44L-289.07,389.04z M-289.68,389.66l-1.41,1.41v-1.41H-289.68z M-289.25,391.5h-1.41l1.41-1.41V391.5z"/>
	<path d="M-288.54,395.9l-0.53,0.53h-2.33c-0.17,0-0.31,0.14-0.31,0.31v2.46c0,0.17,0.14,0.31,0.31,0.31h2.46
		c0.17,0,0.31-0.14,0.31-0.31v-2.33l0.53-0.53L-288.54,395.9z M-289.68,397.04l-1.41,1.41v-1.41H-289.68z M-289.25,398.89h-1.41
		l1.41-1.41V398.89z"/>
	<path d="M-274.17,406.89c0.17,0,0.31-0.14,0.31-0.31v-5.54c0-0.17-0.14-0.31-0.31-0.31h-1.54v-4.61c0-0.17-0.14-0.31-0.31-0.31h-4
		v-7.69c0-0.17-0.14-0.31-0.31-0.31h-12.31c-0.17,0-0.31,0.14-0.31,0.31v16c0,0.17,0.14,0.31,0.31,0.31h4.61v2.15
		c0,0.17,0.14,0.31,0.31,0.31H-274.17z M-278.17,401.35h1.23v1.23h-1.23V401.35z M-281.86,400.73v-4.31h1.85v1.54
		c0,0.17,0.14,0.31,0.31,0.31h1.23c0.17,0,0.31-0.14,0.31-0.31v-1.54h1.85v4.31H-281.86z M-279.4,396.43h0.62v1.23h-0.62V396.43z
		 M-288.01,401.04v2.77h-4.31v-15.38h11.69v7.38h-1.54c-0.17,0-0.31,0.14-0.31,0.31v0.92h-5.54v0.62h5.54v0.62h-5.54v0.62h5.54v1.85
		h-5.23C-287.88,400.73-288.01,400.87-288.01,401.04z M-284.94,401.35h1.23v1.23h-1.23V401.35z M-287.4,401.35h1.85v1.54
		c0,0.17,0.14,0.31,0.31,0.31h1.85c0.17,0,0.31-0.14,0.31-0.31v-1.54h1.85v4.92h-6.15V401.35z M-274.48,406.27h-6.15v-4.92h1.85
		v1.54c0,0.17,0.14,0.31,0.31,0.31h1.85c0.17,0,0.31-0.14,0.31-0.31v-1.54h1.85V406.27z"/>
	<path d="M-276.32,405.04h1.23v0.62h-1.23V405.04z"/>
	<path d="M-278.17,399.5h1.23v0.62h-1.23V399.5z"/>
	<path d="M-276.32,403.81h1.23v0.62h-1.23V403.81z"/>
	<path d="M-283.09,405.04h1.23v0.62h-1.23V405.04z"/>
	<path d="M-283.09,403.81h1.23v0.62h-1.23V403.81z"/>
</g>
</svg>
