<?xml version="1.0" encoding="utf-8"?>
<!-- Generator: Adobe Illustrator 21.0.0, SVG Export Plug-In . SVG Version: 6.00 Build 0)  -->
<svg version="1.1" id="Layer_1" xmlns="http://www.w3.org/2000/svg" xmlns:xlink="http://www.w3.org/1999/xlink" x="0px" y="0px"
	 viewBox="-294 386.7 21.2 21.3" style="enable-background:new -294 386.7 21.2 21.3;" xml:space="preserve">
<g>
	<path d="M-225.24,396.9h-5.24c0.02-0.18,0.03-0.37,0.03-0.56c0-3.39-2.76-6.15-6.15-6.15c-1.08,0-2.14,0.28-3.07,0.82
		c-0.18,0.1-0.24,0.33-0.14,0.51c0.1,0.18,0.33,0.24,0.51,0.14c0.82-0.47,1.75-0.72,2.7-0.72c2.98,0,5.41,2.42,5.41,5.41
		c0,2.98-2.43,5.41-5.41,5.41c-1.25,0-2.42-0.41-3.39-1.2c-0.1-0.08-0.23-0.1-0.34-0.07l-0.99,0.26l0.39-0.85
		c0.06-0.12,0.04-0.27-0.04-0.37c-0.68-0.93-1.03-2.03-1.03-3.18c0-0.95,0.25-1.89,0.73-2.71c0.1-0.18,0.04-0.41-0.14-0.51
		c-0.18-0.1-0.41-0.04-0.51,0.14c-0.54,0.93-0.83,2-0.83,3.08c0,1.24,0.36,2.42,1.05,3.44l-0.62,1.37
		c-0.06,0.13-0.04,0.28,0.05,0.39s0.24,0.16,0.38,0.12l1.59-0.41c1.06,0.8,2.37,1.24,3.71,1.24c0.29,0,0.58-0.02,0.86-0.06v3.26
		c0,0.86,0.7,1.57,1.57,1.57h5.27l2.36,1.93c0.07,0.06,0.15,0.08,0.24,0.08c0.05,0,0.11-0.01,0.16-0.04
		c0.13-0.06,0.21-0.19,0.21-0.34v-1.64h0.71c0.86,0,1.57-0.7,1.57-1.57v-7.23C-223.67,397.61-224.37,396.9-225.24,396.9z
		 M-224.42,405.7c0,0.45-0.37,0.82-0.82,0.82h-1.08c-0.21,0-0.37,0.17-0.37,0.37v1.23l-1.84-1.51c-0.1-0.09-0.19-0.09-0.39-0.09
		h-5.26c-0.45,0-0.82-0.37-0.82-0.82v-3.42c2.2-0.6,3.92-2.39,4.41-4.64h5.36c0.45,0,0.82,0.37,0.82,0.82V405.7z"/>
	<path d="M-227.86,403.19c0.13-0.06,0.21-0.19,0.21-0.34c0-0.21-0.17-0.37-0.37-0.37h-0.15l-1.2-2.74
		c-0.06-0.14-0.19-0.22-0.34-0.22s-0.28,0.09-0.34,0.22l-1.2,2.74h-0.15c-0.21,0-0.37,0.17-0.37,0.37c0,0.15,0.09,0.28,0.21,0.34
		l-0.45,1.02c-0.08,0.19,0,0.41,0.19,0.49c0.19,0.08,0.41,0,0.49-0.19l0.56-1.28h2.11l0.56,1.28c0.06,0.14,0.2,0.22,0.34,0.22
		c0.05,0,0.1-0.01,0.15-0.03c0.19-0.08,0.27-0.3,0.19-0.49L-227.86,403.19z M-230.44,402.48l0.73-1.66l0.73,1.66H-230.44z"/>
	<path d="M-240.69,392.63c0.1,0,0.19-0.04,0.26-0.11c0.07-0.07,0.11-0.17,0.11-0.26c0-0.1-0.04-0.19-0.11-0.26
		c-0.07-0.07-0.17-0.11-0.26-0.11c-0.1,0-0.19,0.04-0.26,0.11c-0.07,0.07-0.11,0.17-0.11,0.26c0,0.1,0.04,0.19,0.11,0.26
		C-240.89,392.59-240.79,392.63-240.69,392.63z"/>
	<path d="M-238.83,398.61c-0.18,0.1-0.25,0.33-0.15,0.51c0.07,0.12,0.2,0.19,0.33,0.19c0.06,0,0.12-0.01,0.18-0.05
		c0.83-0.46,1.47-1.16,1.84-2c0.37,0.84,1.01,1.55,1.84,2c0.06,0.03,0.12,0.05,0.18,0.05c0.13,0,0.26-0.07,0.33-0.19
		c0.1-0.18,0.03-0.41-0.15-0.51c-0.97-0.53-1.63-1.49-1.79-2.56h1.65c0.21,0,0.37-0.17,0.37-0.37c0-0.21-0.17-0.37-0.37-0.37h-1.69
		v-1.55c0-0.21-0.17-0.37-0.37-0.37s-0.37,0.17-0.37,0.37v1.55h-1.35c-0.21,0-0.37,0.17-0.37,0.37c0,0.21,0.17,0.37,0.37,0.37h1.31
		C-237.2,397.13-237.86,398.08-238.83,398.61z"/>
</g>
<path d="M-277.65,397.61v-1.81c0-2.51-1.68-4.77-4.08-5.5l-0.09-0.03v-0.91c0-0.87-0.71-1.58-1.58-1.58s-1.58,0.71-1.58,1.58v0.91
	l-0.09,0.03c-2.4,0.73-4.08,2.99-4.08,5.5v1.81c0,2.36-0.9,4.59-2.53,6.29c-0.12,0.13-0.16,0.32-0.09,0.48s0.23,0.27,0.41,0.27h5.28
	l0.02,0.1c0.26,1.26,1.38,2.18,2.66,2.18c1.29,0,2.41-0.92,2.66-2.18l0.02-0.1h5.28c0.18,0,0.34-0.11,0.41-0.27
	c0.07-0.16,0.04-0.35-0.09-0.48C-276.75,402.2-277.65,399.97-277.65,397.61z M-284.09,389.35c0-0.38,0.31-0.69,0.69-0.69
	c0.38,0,0.69,0.31,0.69,0.69v0.73l-0.14-0.01c-0.37-0.04-0.74-0.04-1.11,0l-0.14,0.01V389.35z M-281.67,404.82
	c-0.26,0.73-0.95,1.22-1.73,1.22c-0.77,0-1.47-0.49-1.73-1.22l-0.06-0.17h3.57L-281.67,404.82z M-290.38,403.77l0.15-0.2
	c1.29-1.73,1.97-3.79,1.97-5.96v-1.81c0-2.68,2.18-4.86,4.86-4.86s4.86,2.18,4.86,4.86v1.81c0,2.17,0.68,4.23,1.97,5.96l0.15,0.2
	H-290.38z"/>
</svg>
