<svg id="Layer_1" data-name="Layer 1" xmlns="http://www.w3.org/2000/svg" viewBox="0 0 19.07 19.08"><title>01</title><path d="M1.06,11.25q0-.6,0-1.19l0-.18c.11-.61.17-1.23.33-1.83A9.53,9.53,0,0,1,20,9c.06.35.1.7.14,1v1.19s0,.1,0,.14c-.06.44-.11.89-.2,1.32A9.54,9.54,0,0,1,12.26,20l-1.07.15H10l-.12,0c-.44-.06-.87-.11-1.31-.19a9.54,9.54,0,0,1-7.36-7.63C1.15,12,1.11,11.61,1.06,11.25Zm7.25,1.68a4.15,4.15,0,1,1,4.83-6.75A4,4,0,0,1,14.72,9a4.13,4.13,0,0,1-1.84,3.94,6,6,0,0,1,3.44,3.86A8.4,8.4,0,0,0,10.25,2.25,8.39,8.39,0,0,0,2.46,8.52a8.3,8.3,0,0,0,2.42,8.26A6,6,0,0,1,8.31,12.93Zm2,6.14a8.68,8.68,0,0,0,4.82-1.35.27.27,0,0,0,.13-.35,4.83,4.83,0,0,0-9.44,0A.23.23,0,0,0,6,17.7,8.26,8.26,0,0,0,10.36,19.07ZM10.6,6.42a3,3,0,1,0,3,3A3,3,0,0,0,10.6,6.42Z" transform="translate(-1.06 -1.11)"/></svg>