<?xml version="1.0" encoding="utf-8"?>
<!-- Generator: Adobe Illustrator 21.0.0, SVG Export Plug-In . SVG Version: 6.00 Build 0)  -->
<svg version="1.1" id="Layer_1" xmlns="http://www.w3.org/2000/svg" xmlns:xlink="http://www.w3.org/1999/xlink" x="0px" y="0px"
	 viewBox="-294 386.7 21.2 21.3" style="enable-background:new -294 386.7 21.2 21.3;" xml:space="preserve">
<g>
	<path d="M-283.45,397.99c-2.83,0-5.67,0-8.5,0c-0.14,0-0.28,0.01-0.41-0.01c-0.33-0.06-0.57-0.27-0.58-0.6
		c-0.01-0.36,0.23-0.58,0.58-0.65c0.13-0.03,0.27-0.01,0.41-0.01c5.7,0,11.39,0,17.09,0c0.65,0,1.01,0.24,0.99,0.66
		c-0.02,0.4-0.36,0.61-1,0.61C-277.72,397.99-280.59,397.99-283.45,397.99z"/>
	<path d="M-289.13,391.62c0,1.03,0,2,0,2.97c0,0.51-0.25,0.84-0.62,0.85c-0.39,0.01-0.65-0.33-0.65-0.87c0-1.12,0-2.24,0-3.36
		c0-0.62,0.24-0.86,0.84-0.86c1.13,0,2.27,0,3.4,0c0.51,0,0.83,0.25,0.84,0.63c0.01,0.39-0.33,0.65-0.87,0.65
		C-287.15,391.62-288.11,391.62-289.13,391.62z"/>
	<path d="M-277.68,391.62c-1.04,0-2,0-2.97,0c-0.51,0-0.84-0.25-0.84-0.63c-0.01-0.37,0.33-0.64,0.83-0.65c1.15,0,2.3,0,3.45,0
		c0.56,0,0.81,0.25,0.81,0.8c0.01,1.16,0,2.33,0,3.49c0,0.47-0.26,0.79-0.63,0.8c-0.38,0.01-0.64-0.33-0.64-0.82
		C-277.68,393.63-277.68,392.65-277.68,391.62z"/>
	<path d="M-289.13,403.08c1.02,0,1.99,0,2.95,0c0.53,0,0.87,0.26,0.86,0.65c-0.01,0.37-0.34,0.62-0.85,0.62c-1.13,0-2.27,0-3.4,0
		c-0.58,0-0.83-0.24-0.83-0.82c0-1.15,0-2.3,0-3.45c0-0.49,0.28-0.83,0.65-0.82c0.36,0.01,0.61,0.34,0.62,0.81
		C-289.13,401.05-289.13,402.03-289.13,403.08z"/>
	<path d="M-277.68,403.08c0-0.95,0-1.86,0-2.76c0-0.14-0.01-0.27,0-0.41c0.04-0.36,0.33-0.67,0.64-0.64
		c0.38,0.04,0.61,0.28,0.62,0.66c0.02,0.71,0.01,1.42,0.01,2.13c0,0.5,0,1,0,1.5c-0.01,0.53-0.25,0.79-0.77,0.79
		c-1.18,0.01-2.36,0.01-3.54,0c-0.46,0-0.79-0.28-0.78-0.64c0.01-0.36,0.33-0.62,0.8-0.63
		C-279.71,403.07-278.73,403.08-277.68,403.08z"/>
</g>
</svg>
