<?xml version="1.0" encoding="utf-8"?>
<!-- Generator: Adobe Illustrator 21.0.0, SVG Export Plug-In . SVG Version: 6.00 Build 0)  -->
<svg version="1.1" id="Layer_1" xmlns="http://www.w3.org/2000/svg" xmlns:xlink="http://www.w3.org/1999/xlink" x="0px" y="0px"
	 viewBox="-294 386.7 21.2 21.3" style="enable-background:new -294 386.7 21.2 21.3;" xml:space="preserve">
<g>
	<path d="M-273.87,402.95c-0.08,0.35-0.18,0.69-0.39,0.99c-0.47,0.65-1.11,0.96-1.91,0.96c-0.82,0-1.64,0-2.46,0.01
		c-0.1,0-0.22,0.05-0.29,0.12c-0.56,0.55-1.11,1.1-1.66,1.65c-0.07,0.07-0.15,0.14-0.24,0.17c-0.26,0.09-0.48-0.1-0.48-0.4
		c-0.01-0.44,0-0.88,0-1.32c0-0.07,0-0.13,0-0.23c-0.27,0-0.51,0.01-0.76,0c-1.15-0.06-2.06-1-2.08-2.16c-0.02-1.22,0-2.43,0-3.65
		c0-0.6-0.01-1.2,0-1.81c0.01-0.3,0.06-0.6,0.09-0.9c-0.65,0-1.31,0-1.97,0c-0.5,0-0.72-0.22-0.72-0.71c0-0.74-0.01-1.49,0.03-2.23
		c0.03-0.71,0.22-1.38,0.72-1.93c0.41-0.44,0.93-0.64,1.51-0.74c0.69-0.11,0.74,0.15,0.72,0.64c-0.01,0.26,0,0.52,0,0.78
		c0,0.22-0.11,0.35-0.32,0.39c-0.49,0.11-0.63,0.26-0.71,0.82c0.2,0,0.39,0,0.59,0c0.44,0,0.67,0.23,0.67,0.66c0,0.5,0,1,0,1.54
		c0.05-0.04,0.09-0.07,0.12-0.1c0.39-0.35,0.85-0.56,1.38-0.58c0.49-0.01,0.98-0.01,1.47-0.01c0.17,0,0.3,0.06,0.38,0.22
		c0.06,0.14,0.06,0.29-0.05,0.38c-0.1,0.08-0.24,0.14-0.36,0.14c-0.4,0.02-0.8-0.01-1.19,0.01c-0.25,0.01-0.51,0.05-0.74,0.15
		c-0.56,0.25-0.85,0.72-0.85,1.33c-0.01,1.84-0.01,3.67,0,5.51c0.01,0.87,0.64,1.47,1.54,1.49c0.28,0.01,0.56,0,0.84,0
		c0.32,0.01,0.45,0.13,0.45,0.45c0,0.31,0,0.62,0,0.97c0.06-0.05,0.1-0.08,0.14-0.11c0.37-0.37,0.74-0.73,1.1-1.11
		c0.14-0.14,0.3-0.21,0.5-0.2c0.88,0,1.75,0,2.63,0c0.64,0,1.14-0.25,1.42-0.83c0.1-0.21,0.16-0.46,0.16-0.7
		c0.01-1.81,0.01-3.62,0.01-5.44c0-0.9-0.63-1.51-1.55-1.52c-0.35-0.01-0.71,0-1.06,0c-0.26-0.01-0.41-0.14-0.42-0.36
		c-0.01-0.17,0.1-0.36,0.26-0.36c0.81-0.02,1.63-0.17,2.38,0.26c0.61,0.35,0.98,0.88,1.1,1.58c0.01,0.03,0.02,0.06,0.03,0.09
		C-273.87,398.9-273.87,400.92-273.87,402.95z M-284.52,391.54c-0.06,0.01-0.1,0.01-0.13,0.02c-0.69,0.17-1.2,0.72-1.27,1.52
		c-0.07,0.83-0.05,1.67-0.07,2.51c0,0.01,0.01,0.02,0.02,0.03c0.55,0,1.11,0,1.66,0c0-0.5,0-0.98,0-1.47c-0.29,0-0.57,0.01-0.85,0
		c-0.27-0.01-0.44-0.16-0.42-0.41c0.01-0.25,0.04-0.51,0.1-0.75c0.11-0.45,0.35-0.81,0.79-0.99c0.15-0.06,0.2-0.14,0.18-0.29
		C-284.52,391.66-284.52,391.61-284.52,391.54z"/>
	<path d="M-283.66,387.83c0.2,0.03,0.4,0.05,0.6,0.1c1.1,0.28,1.87,1.25,1.89,2.38c0.01,0.73,0,1.45,0,2.18
		c0,0.27-0.15,0.44-0.38,0.44c-0.23,0-0.37-0.17-0.37-0.45c0-0.69,0-1.38,0-2.07c-0.01-0.87-0.5-1.53-1.32-1.76
		c-0.16-0.05-0.34-0.06-0.51-0.06c-2.2,0-4.39,0-6.59,0c-0.75,0-1.34,0.32-1.66,1.01c-0.11,0.24-0.18,0.54-0.18,0.81
		c-0.01,2.1-0.01,4.19-0.01,6.29c0,1.05,0.75,1.8,1.81,1.82c0.26,0,0.52,0.01,0.78,0c0.19,0,0.33,0.06,0.46,0.19
		c0.5,0.51,1.01,1.02,1.56,1.57c0-0.11,0-0.17,0-0.24c0-0.36,0-0.72,0-1.08c0-0.29,0.14-0.44,0.43-0.45c0.52-0.01,1.04-0.01,1.56,0
		c0.24,0,0.39,0.12,0.42,0.32c0.03,0.16-0.06,0.33-0.22,0.39c-0.08,0.03-0.17,0.03-0.26,0.03c-0.39,0-0.78,0-1.19,0
		c0,0.08,0,0.15,0,0.21c0,0.54,0,1.08,0,1.62c0,0.18-0.05,0.34-0.22,0.41c-0.18,0.08-0.33,0.01-0.47-0.13c-0.67-0.67-1.33-1.33-2-2
		c-0.09-0.09-0.17-0.12-0.29-0.12c-0.5,0-1,0.03-1.49-0.15c-0.95-0.36-1.62-1.26-1.63-2.28c-0.01-2.18-0.02-4.36,0-6.53
		c0.01-1.3,1.04-2.35,2.35-2.44c0.05,0,0.1-0.02,0.14-0.03C-288.18,387.83-285.92,387.83-283.66,387.83z"/>
	<path d="M-288.6,393.41c0.21,0,0.42,0,0.63,0c0.36,0.01,0.6,0.23,0.61,0.59c0.01,0.6,0.01,1.19,0,1.79
		c-0.01,0.35-0.23,0.58-0.57,0.59c-0.68,0.01-1.36,0.01-2.05,0c-0.33-0.01-0.56-0.25-0.56-0.58c0-0.85-0.01-1.7,0.04-2.55
		c0.05-0.77,0.32-1.46,0.95-1.97c0.47-0.37,1.01-0.51,1.59-0.54c0.21-0.01,0.37,0.14,0.38,0.36c0.01,0.38,0.01,0.76,0,1.13
		c-0.01,0.22-0.13,0.32-0.37,0.37C-288.37,392.68-288.59,392.96-288.6,393.41z M-288.32,391.54c-0.33,0.06-0.61,0.18-0.84,0.39
		c-0.41,0.37-0.57,0.86-0.6,1.38c-0.04,0.75-0.03,1.5-0.04,2.25c0,0.02,0.01,0.04,0.02,0.06c0.56,0,1.12,0,1.67,0
		c0-0.5,0-0.98,0-1.47c-0.29,0-0.56,0-0.83,0c-0.28-0.01-0.45-0.15-0.44-0.4c0.02-0.8,0.2-1.52,1.07-1.84
		C-288.32,391.79-288.32,391.68-288.32,391.54z"/>
	<path d="M-281.09,400.11c-0.16,0-0.32,0-0.48,0c-0.4,0-0.63-0.23-0.63-0.62c0-0.5,0-1,0-1.51c0-0.39,0.23-0.62,0.63-0.62
		c0.56,0,1.13,0,1.69,0c0.4,0,0.62,0.23,0.62,0.63c0,0.65,0.01,1.3-0.01,1.95c-0.03,0.71-0.19,1.38-0.71,1.91
		c-0.46,0.47-1.04,0.63-1.67,0.66c-0.2,0.01-0.35-0.15-0.36-0.37c-0.01-0.33-0.01-0.66,0-0.99c0.01-0.23,0.13-0.34,0.38-0.39
		C-281.28,400.69-281.12,400.5-281.09,400.11z M-281.45,399.35c0.03,0.01,0.04,0.01,0.05,0.01c0.2,0,0.41,0,0.61,0
		c0.36,0,0.49,0.13,0.47,0.5c-0.01,0.19-0.03,0.38-0.08,0.57c-0.1,0.41-0.31,0.75-0.71,0.92c-0.18,0.08-0.2,0.18-0.16,0.34
		c0.62-0.12,1.09-0.57,1.16-1.25c0.08-0.77,0.06-1.54,0.08-2.32c0-0.01-0.02-0.02-0.02-0.02c-0.47,0-0.94,0-1.42,0
		C-281.45,398.53-281.45,398.94-281.45,399.35z"/>
	<path d="M-277.63,400.11c-0.18,0-0.35,0-0.51,0c-0.36-0.01-0.59-0.24-0.6-0.6c0-0.52,0-1.04,0-1.56c0-0.36,0.23-0.59,0.6-0.59
		c0.58,0,1.17,0,1.75,0c0.34,0,0.59,0.23,0.59,0.56c0,0.78,0.01,1.56-0.04,2.34c-0.05,0.76-0.35,1.43-1.03,1.87
		c-0.39,0.25-0.82,0.35-1.27,0.37c-0.23,0.01-0.39-0.13-0.4-0.37c-0.01-0.33-0.01-0.67,0-1c0.01-0.21,0.13-0.32,0.35-0.37
		C-277.81,400.68-277.68,400.52-277.63,400.11z M-277.99,399.37c0.26,0,0.5,0,0.74,0c0.27,0.01,0.42,0.16,0.4,0.42
		c-0.01,0.22-0.03,0.44-0.08,0.64c-0.1,0.4-0.31,0.74-0.7,0.92c-0.18,0.08-0.22,0.18-0.17,0.35c0.3-0.06,0.55-0.19,0.76-0.41
		c0.3-0.33,0.43-0.74,0.45-1.17c0.03-0.54,0.02-1.09,0.03-1.64c0-0.12,0-0.24,0-0.36c-0.5,0-0.97,0-1.45,0
		C-277.99,398.54-277.99,398.94-277.99,399.37z"/>
	<path d="M-281.54,393.61c0.19,0,0.37,0.18,0.37,0.37c0,0.2-0.17,0.37-0.37,0.37c-0.2,0-0.37-0.17-0.37-0.37
		C-281.91,393.79-281.73,393.61-281.54,393.61z"/>
	<ellipse transform="matrix(1 -1.441852e-03 1.441852e-03 1 -0.5702 -0.4016)" cx="-278.82" cy="395.29" rx="0.37" ry="0.36"/>
</g>
</svg>
