<?xml version="1.0" encoding="utf-8"?>
<!-- Generator: Adobe Illustrator 21.0.0, SVG Export Plug-In . SVG Version: 6.00 Build 0)  -->
<svg version="1.1" id="Layer_1" xmlns="http://www.w3.org/2000/svg" xmlns:xlink="http://www.w3.org/1999/xlink" x="0px" y="0px"
	 viewBox="-294 386.7 21.2 21.3" style="enable-background:new -294 386.7 21.2 21.3;" xml:space="preserve">
<path d="M-279.74,402c-2.08,1.63-4.37,2.22-6.9,1.67c-2.05-0.44-3.67-1.58-4.87-3.3c-2.15-3.1-1.88-7.42,0.98-10.21
	c3-2.93,7.46-3.14,10.71-0.5c1.71,1.39,2.69,3.22,2.9,5.42c0.21,2.19-0.42,4.15-1.84,5.93c0.07,0.04,0.14,0.06,0.19,0.11
	c1.47,1.47,2.94,2.94,4.41,4.4c0.23,0.23,0.36,0.48,0.26,0.82c-0.15,0.49-0.73,0.69-1.14,0.38c-0.07-0.06-0.14-0.12-0.21-0.19
	c-1.46-1.45-2.91-2.91-4.37-4.37C-279.67,402.13-279.7,402.06-279.74,402z M-278.37,395.85c0-3.6-2.93-6.53-6.53-6.53
	c-3.59,0-6.52,2.92-6.54,6.52c-0.01,3.59,2.94,6.55,6.54,6.54C-281.3,402.38-278.37,399.45-278.37,395.85z"/>
</svg>
