<?xml version="1.0" encoding="utf-8"?>
<!-- Generator: Adobe Illustrator 21.0.0, SVG Export Plug-In . SVG Version: 6.00 Build 0)  -->
<svg version="1.1" id="Layer_1" xmlns="http://www.w3.org/2000/svg" xmlns:xlink="http://www.w3.org/1999/xlink" x="0px" y="0px"
	 viewBox="-294 386.7 21.2 21.3" style="enable-background:new -294 386.7 21.2 21.3;" xml:space="preserve">
<g>
	<path d="M-273.86,401.71c-0.01,0.03-0.03,0.06-0.03,0.08c-0.19,0.86-0.96,1.39-1.86,1.26c0-0.2,0-0.4,0-0.61
		c0.14-0.01,0.27-0.01,0.39-0.02c0.49-0.05,0.84-0.43,0.86-0.92c0-0.06,0-0.11,0-0.17c0-3.51,0-7.02,0-10.52
		c0-0.72-0.38-1.1-1.1-1.1c-5.2,0-10.41,0-15.61,0c-0.72,0-1.09,0.38-1.09,1.09c0,3.51,0,7.03,0,10.54c0,0.71,0.38,1.09,1.09,1.09
		c1.98,0,3.96,0,5.94,0c0.08,0,0.16,0,0.26,0c0,0.21,0,0.41,0,0.64c-0.07,0-0.13,0-0.2,0c-2.01,0-4.01,0-6.02,0
		c-1.05,0-1.71-0.67-1.71-1.71c0-3.53,0-7.05,0-10.58c0-1.03,0.67-1.7,1.7-1.7c5.21,0,10.42,0,15.63,0c0.93,0,1.48,0.42,1.72,1.33
		c0,0.02,0.02,0.03,0.02,0.05C-273.86,394.21-273.86,397.96-273.86,401.71z"/>
	<path d="M-282.78,401.16c0,0.23,0,0.43,0,0.64c-0.08,0-0.16,0-0.23,0c-2.62,0-5.24,0-7.86,0c-0.4,0-0.48-0.08-0.48-0.48
		c0-3.5,0-6.99,0-10.49c0-0.4,0.08-0.48,0.48-0.48c4.98,0,9.96,0,14.94,0c0.39,0,0.47,0.09,0.47,0.47c0,3.27,0,6.53,0,9.8
		c0,0.07,0,0.14,0,0.22c-0.21,0-0.41,0-0.63,0c0-3.27,0-6.54,0-9.83c-4.88,0-9.74,0-14.61,0c0,3.38,0,6.75,0,10.15
		C-288.06,401.16-285.42,401.16-282.78,401.16z"/>
	<path d="M-277.99,401.08c0.25-0.19,0.52-0.28,0.83-0.21c0.45,0.1,0.76,0.48,0.76,0.96c0.01,1.14,0,2.27,0,3.41
		c0,0.26-0.12,0.38-0.38,0.38c-1.66,0-3.31,0-4.97,0c-0.1,0-0.21-0.04-0.29-0.1c-0.64-0.45-1.28-0.9-1.91-1.36
		c-0.41-0.3-0.52-0.81-0.26-1.21c0.26-0.41,0.8-0.54,1.23-0.3c0.28,0.15,0.54,0.32,0.85,0.5c0-0.09,0-0.15,0-0.22
		c0-1.21,0-2.42,0-3.63c0-0.54,0.37-0.94,0.87-0.98c0.54-0.04,1.01,0.36,1.03,0.9c0.02,0.48,0.01,0.97,0.01,1.45
		c0,0.07,0,0.14,0,0.17c0.25,0.03,0.49,0.02,0.7,0.11c0.19,0.08,0.32,0.1,0.51,0C-278.67,400.76-278.32,400.84-277.99,401.08z
		 M-277.05,404.98c0.01-0.06,0.01-0.1,0.01-0.13c0-0.99,0-1.97,0-2.96c0-0.06-0.01-0.11-0.02-0.16c-0.05-0.15-0.15-0.24-0.32-0.24
		c-0.16,0.01-0.26,0.1-0.29,0.26c-0.05,0.26-0.14,0.36-0.32,0.37c-0.18,0-0.28-0.1-0.33-0.35c0-0.01,0-0.02-0.01-0.04
		c-0.04-0.16-0.15-0.24-0.31-0.24c-0.15,0-0.26,0.09-0.3,0.23c-0.01,0.05-0.02,0.11-0.03,0.16c-0.04,0.15-0.15,0.23-0.3,0.23
		c-0.14,0-0.25-0.07-0.3-0.21c-0.02-0.06-0.01-0.14-0.04-0.18c-0.07-0.09-0.16-0.2-0.26-0.22c-0.09-0.02-0.22,0.06-0.3,0.13
		c-0.05,0.04-0.05,0.15-0.07,0.22c-0.05,0.22-0.27,0.32-0.46,0.22c-0.14-0.08-0.17-0.21-0.17-0.37c0-0.76,0-1.53,0-2.29
		c0-0.07,0-0.14-0.01-0.2c-0.02-0.16-0.16-0.27-0.31-0.27c-0.17,0-0.27,0.09-0.31,0.25c-0.02,0.07-0.01,0.15-0.01,0.22
		c0,1.4,0,2.81,0,4.21c0,0.37-0.24,0.5-0.55,0.32c-0.39-0.23-0.79-0.47-1.18-0.71c-0.18-0.11-0.35-0.09-0.44,0.05
		c-0.09,0.13-0.04,0.26,0.15,0.4c0.55,0.4,1.11,0.8,1.67,1.19c0.09,0.07,0.22,0.11,0.34,0.11c1.32,0.01,2.63,0,3.95,0
		C-277.41,404.98-277.24,404.98-277.05,404.98z"/>
	<path d="M-283.4,394.62c-0.45,0.45-0.87,0.87-1.3,1.3c-0.24,0.24-0.42,0.23-0.62-0.06c-0.11-0.16-0.22-0.33-0.33-0.49
		c-0.01-0.01-0.02-0.01-0.07-0.04c-0.17,0.18-0.35,0.37-0.53,0.56c-0.02,0.02-0.03,0.06-0.03,0.08c0,0.25,0,0.49,0,0.76
		c3.18,0,6.35,0,9.52,0c0,0.22,0,0.42,0,0.64c-0.07,0-0.13,0-0.2,0c-3.17,0-6.33,0-9.5,0c-0.37,0-0.46-0.09-0.46-0.46
		c0-1.25,0-2.51,0-3.76c0-0.07,0-0.13,0-0.21c0.22,0,0.41,0,0.63,0c0,0.68,0,1.35,0,2.02c0.01,0.01,0.03,0.02,0.04,0.02
		c0.11-0.11,0.21-0.21,0.32-0.32c0.23-0.23,0.42-0.21,0.59,0.06c0.12,0.17,0.23,0.34,0.34,0.51c0.01,0.01,0.02,0.02,0.04,0.04
		c0.04-0.04,0.09-0.08,0.13-0.12c0.38-0.38,0.75-0.76,1.13-1.13c0.19-0.19,0.35-0.19,0.54,0c0.21,0.21,0.42,0.43,0.65,0.67
		c0.16-0.19,0.31-0.37,0.46-0.54c0.29-0.34,0.57-0.69,0.86-1.03c0.21-0.25,0.41-0.25,0.62,0c0.43,0.51,0.86,1.03,1.31,1.57
		c0.2-0.21,0.4-0.4,0.59-0.6c0.28-0.28,0.39-0.28,0.68,0.01c0.08,0.08,0.16,0.17,0.25,0.27c0.26-0.34,0.5-0.66,0.74-0.99
		c0.17,0.13,0.33,0.25,0.51,0.38c-0.33,0.44-0.64,0.87-0.97,1.29c-0.12,0.15-0.31,0.15-0.46,0.02c-0.07-0.06-0.13-0.13-0.2-0.2
		s-0.12-0.14-0.2-0.23c-0.24,0.24-0.45,0.46-0.67,0.68c-0.23,0.23-0.4,0.22-0.6-0.03c-0.42-0.51-0.84-1.01-1.28-1.53
		c-0.07,0.09-0.14,0.17-0.21,0.25c-0.36,0.43-0.72,0.87-1.08,1.3c-0.2,0.23-0.36,0.24-0.58,0.03
		C-282.95,395.07-283.16,394.85-283.4,394.62z"/>
	<path d="M-288.16,391.64c0.21,0,0.41,0,0.61,0c0,2.96,0,5.91,0,8.88c-0.2,0-0.4,0-0.61,0
		C-288.16,397.56-288.16,394.6-288.16,391.64z"/>
	<path d="M-286.89,392.25c0-0.21,0-0.4,0-0.61c0.63,0,1.25,0,1.88,0c0,0.2,0,0.4,0,0.61C-285.63,392.25-286.25,392.25-286.89,392.25
		z"/>
	<path d="M-290.06,393.52c0-0.21,0-0.4,0-0.61c0.42,0,0.83,0,1.25,0c0,0.2,0,0.4,0,0.61C-289.22,393.52-289.63,393.52-290.06,393.52
		z"/>
	<path d="M-288.81,394.19c0,0.21,0,0.41,0,0.61c-0.42,0-0.82,0-1.24,0c0-0.2,0-0.4,0-0.61
		C-289.65,394.19-289.24,394.19-288.81,394.19z"/>
	<path d="M-288.81,395.46c0,0.21,0,0.41,0,0.61c-0.42,0-0.82,0-1.24,0c0-0.2,0-0.4,0-0.61
		C-289.65,395.46-289.24,395.46-288.81,395.46z"/>
	<path d="M-290.07,397.34c0-0.2,0-0.4,0-0.61c0.42,0,0.83,0,1.25,0c0,0.2,0,0.4,0,0.61C-289.22,397.34-289.63,397.34-290.07,397.34z
		"/>
	<path d="M-288.81,398c0,0.21,0,0.4,0,0.61c-0.41,0-0.83,0-1.25,0c0-0.19,0-0.4,0-0.61C-289.65,398-289.24,398-288.81,398z"/>
	<path d="M-285.64,398c0,0.2,0,0.4,0,0.61c-0.42,0-0.83,0-1.25,0c0-0.2,0-0.39,0-0.61C-286.48,398-286.07,398-285.64,398z"/>
	<path d="M-279.26,397.99c0.42,0,0.83,0,1.25,0c0,0.2,0,0.41,0,0.62c-0.41,0-0.83,0-1.25,0
		C-279.26,398.4-279.26,398.21-279.26,397.99z"/>
	<path d="M-288.81,399.27c0,0.21,0,0.4,0,0.61c-0.41,0-0.83,0-1.25,0c0-0.19,0-0.39,0-0.61
		C-289.65,399.27-289.24,399.27-288.81,399.27z"/>
	<path d="M-285.63,399.27c0,0.21,0,0.4,0,0.61c-0.41,0-0.82,0-1.25,0c0-0.19,0-0.39,0-0.61
		C-286.47,399.27-286.06,399.27-285.63,399.27z"/>
	<path d="M-279.26,399.88c0-0.21,0-0.4,0-0.61c0.41,0,0.83,0,1.25,0c0,0.2,0,0.4,0,0.61C-278.42,399.88-278.83,399.88-279.26,399.88
		z"/>
	<path d="M-289.45,392.25c-0.2,0-0.4,0-0.61,0c0-0.2,0-0.4,0-0.62c0.2,0,0.4,0,0.61,0C-289.45,391.84-289.45,392.04-289.45,392.25z"
		/>
	<path d="M-284.98,397.99c0.21,0,0.41,0,0.61,0c0,0.2,0,0.4,0,0.61c-0.2,0-0.4,0-0.61,0C-284.98,398.4-284.98,398.2-284.98,397.99z"
		/>
	<path d="M-282.46,398.61c-0.2,0-0.4,0-0.61,0c0-0.21,0-0.41,0-0.62c0.2,0,0.4,0,0.61,0C-282.46,398.19-282.46,398.39-282.46,398.61
		z"/>
	<path d="M-277.35,398.61c0-0.21,0-0.4,0-0.61c0.2,0,0.4,0,0.62,0c0,0.2,0,0.4,0,0.61C-276.94,398.61-277.14,398.61-277.35,398.61z"
		/>
	<path d="M-284.98,399.26c0.21,0,0.4,0,0.6,0c0,0.21,0,0.41,0,0.62c-0.2,0-0.39,0-0.6,0C-284.98,399.68-284.98,399.48-284.98,399.26
		z"/>
	<path d="M-277.36,399.87c0-0.14,0-0.27,0-0.39c0-0.07,0-0.13,0-0.21c0.21,0,0.41,0,0.62,0c0,0.2,0,0.4,0,0.61
		C-276.93,399.87-277.13,399.87-277.36,399.87z"/>
	<path d="M-283.72,392.26c-0.19,0-0.36,0.01-0.53-0.01c-0.04,0-0.09-0.07-0.1-0.11c-0.05-0.5,0.01-0.56,0.51-0.51
		c0.04,0,0.11,0.06,0.11,0.1C-283.71,391.9-283.72,392.07-283.72,392.26z"/>
</g>
</svg>
